<svg viewBox="0 0 24 24" fill="white" xmlns="http://www.w3.org/2000/svg">
<path d="M12 .297a12 12 0 00-3.79 23.39c.6.111.82-.258.82-.577 0-.285-.011-1.04-.017-2.04-3.338.725-4.042-1.61-4.042-1.61-.546-1.387-1.333-1.756-1.333-1.756-1.089-.756.083-.741.083-.741 1.205.086 1.84 1.237 1.84 1.237 1.07 1.834 2.807 1.303 3.492.997.108-.787.419-1.303.762-1.602-2.665-.305-5.466-1.335-5.466-5.93 0-1.31.469-2.381 1.236-3.221-.124-.303-.536-1.524.117-3.176 0 0 1.008-.323 3.301 1.23A11.48 11.48 0 0112 6.07c1.02.005 2.047.138 3.006.404 2.291-1.553 3.297-1.23 3.297-1.23.655 1.653.243 2.874.12 3.176.77.84 1.234 1.911 1.234 3.22 0 4.61-2.806 5.62-5.479 5.92.43.37.823 1.103.823 2.222 0 1.604-.015 2.896-.015 3.286 0 .322.216.694.825.576A12.003 12.003 0 0012 .297z"/>
</svg>
