<svg viewBox="0 0 24 24" fill="white" xmlns="http://www.w3.org/2000/svg">
<path d="M20.447 20.452h-3.554v-5.569c0-1.328-.027-3.037-1.852-3.037-1.853 0-2.136 1.446-2.136 2.939v5.667H9.351V9h3.414v1.561h.049c.476-.9 1.637-1.852 3.368-1.852 3.601 0 4.267 2.37 4.267 5.455v6.288zM5.337 7.433c-1.144 0-2.067-.926-2.067-2.067 0-1.143.923-2.066 2.067-2.066 1.141 0 2.066.923 2.066 2.066 0 1.141-.925 2.067-2.066 2.067zm1.777 13.019H3.559V9h3.555v11.452zM22.225 0H1.771C.792 0 0 .771 0 1.723v20.549C0 23.23.792 24 1.771 24h20.451C23.2 24 24 23.23 24 22.271V1.723C24 .771 23.2 0 22.225 0z"/>
</svg>
